<?xml version="1.0" standalone="no"?>
<!DOCTYPE svg PUBLIC "-//W3C//DTD SVG 1.1//EN" "http://www.w3.org/Graphics/SVG/1.1/DTD/svg11.dtd" >
<svg xmlns="http://www.w3.org/2000/svg">
<metadata>Generated by IcoMoon</metadata>
<defs>
<font id="icomoon" horiz-adv-x="1024">
<font-face units-per-em="1024" ascent="960" descent="-64" />
<missing-glyph horiz-adv-x="1024" />
<glyph unicode="&#x20;" horiz-adv-x="512" d="" />
<glyph unicode="&#xe900;" glyph-name="favorite" d="M512 28.667l-62 56q-106 96-154 142t-107 114-81 123-22 113q0 98 67 166t167 68q116 0 192-90 76 90 192 90 100 0 167-68t67-166q0-78-52-162t-113-146-199-186z" />
<glyph unicode="&#xe901;" glyph-name="heart" d="M859.008 711.808c37.547-37.589 56.277-86.656 56.277-135.851s-18.773-98.261-56.277-135.765l-347.008-347.008-347.008 347.008c-37.504 37.504-56.235 86.571-56.235 135.808s18.731 98.304 56.235 135.808 86.571 56.235 135.808 56.235 98.304-18.731 135.808-56.235l45.227-45.227c16.683-16.683 43.691-16.683 60.331 0l45.312 45.312c37.504 37.504 86.571 56.235 135.765 56.192s98.261-18.773 135.765-56.277zM919.339 772.139c-54.144 54.144-125.184 81.237-196.096 81.28s-141.952-27.051-196.139-81.195l-15.104-15.147-15.061 15.061c-54.144 54.144-125.227 81.237-196.139 81.237s-141.995-27.093-196.139-81.237-81.237-125.227-81.237-196.139 27.093-141.995 81.237-196.139l377.173-377.173c16.683-16.683 43.691-16.683 60.331 0l377.173 377.173c54.144 54.144 81.237 125.184 81.28 196.096s-27.051 141.952-81.28 196.181z" />
<glyph unicode="&#xe902;" d="M0 189.242c0-42.354 34.334-76.69 76.69-76.69h870.62c42.354 0 76.69 34.334 76.69 76.69v64.552h-1024v-64.552z" />
<glyph unicode="&#xe903;" d="M947.31 783.448h-870.62c-42.356 0-76.69-34.334-76.69-76.69v-64.552h1024v64.552c0 42.356-34.334 76.69-76.69 76.69z" />
<glyph unicode="&#xe904;" d="M0 642.2h1024v-388.42h-1024v388.42z" />
<glyph unicode="&#xe905;" d="M432.552 448l14.97 67.362c1.38 6.204-3.342 12.088-9.698 12.088h-10.544c-6.354 0-11.074-5.886-9.698-12.088l14.97-67.362z" />
<glyph unicode="&#xe906;" d="M414.9 483.32h35.31v-150.060h-35.31v150.060z" />
<glyph unicode="&#xe907;" d="M406.060 500.96h52.966v-17.656h-52.966v17.656z" />
<glyph unicode="&#xe908;" d="M370.76 448h88.28v-17.656h-88.28v17.656z" />
<glyph unicode="&#xe909;" d="M459.034 377.38l-52.966 17.654v17.656l52.966-17.656z" />
<glyph unicode="&#xe90a;" d="M167.724 448l14.97 67.362c1.38 6.204-3.342 12.088-9.698 12.088h-10.544c-6.354 0-11.074-5.886-9.698-12.088l14.97-67.362z" />
<glyph unicode="&#xe90b;" d="M229.518 500.966c-9.75 0-17.656-7.906-17.656-17.656v-114.758c0-21.45 20.020-61.794 88.276-61.794s88.276 40.342 88.276 61.794v114.758c0 9.75-7.906 17.656-17.656 17.656h-141.24z" />
<glyph unicode="&#xe90c;" d="M300.138 412.69h-88.276v70.62c0 9.75 7.906 17.656 17.656 17.656h70.62v-88.276z" />
<glyph unicode="&#xe90d;" d="M300.138 412.69h88.276v-44.138c0-24.378-19.76-44.138-44.138-44.138v0c-24.378 0-44.138 19.76-44.138 44.138v44.138z" />
<glyph unicode="&#xe90e;" d="M211.862 412.69h88.276v-44.138c0-24.378-19.76-44.138-44.138-44.138v0c-24.378 0-44.138 19.76-44.138 44.138v44.138z" />
<glyph unicode="&#xe90f;" d="M282.482 333.44v79.25h-17.656v-87.386c6.568 1.332 12.502 4.24 17.656 8.136z" />
<glyph unicode="&#xe910;" d="M247.172 325.304v87.386h-17.656v-79.25c5.156-3.896 11.090-6.804 17.656-8.136z" />
<glyph unicode="&#xe911;" d="M229.52 448h52.966v-17.656h-52.966v17.656z" />
<glyph unicode="&#xe912;" d="M229.52 483.32h52.966v-17.656h-52.966v17.656z" />
<glyph unicode="&#xe913;" d="M238.34 472.82h35.31v-31.984h-35.31v31.984z" />
<glyph unicode="&#xe914;" d="M150.060 483.32h35.31v-150.060h-35.31v150.060z" />
<glyph unicode="&#xe915;" d="M141.24 342.060h52.966v-17.656h-52.966v17.656z" />
<glyph unicode="&#xe916;" d="M141.24 500.96h52.966v-17.656h-52.966v17.656z" />
<glyph unicode="&#xe917;" d="M132.42 324.42h70.62v-17.656h-70.62v17.656z" />
<glyph unicode="&#xe918;" d="M414.9 342.060h52.966v-17.656h-52.966v17.656z" />
<glyph unicode="&#xe919;" d="M397.24 324.42h70.62v-17.656h-70.62v17.656z" />
<glyph unicode="&#xe91a;" d="M247.18 518.62h105.932v-17.656h-105.932v17.656z" />
<glyph unicode="&#xe91b;" d="M291.32 571.58h17.656v-52.966h-17.656v52.966z" />
<glyph unicode="&#xe91c;" d="M282.482 545.104c-14.604 0-26.482 11.88-26.482 26.482 0 14.604 11.88 26.482 26.482 26.482 14.604 0 26.482-11.88 26.482-26.482 0.002-14.602-11.878-26.482-26.482-26.482zM282.482 580.414c-4.87 0-8.828-3.956-8.828-8.828 0-4.87 3.956-8.828 8.828-8.828s8.828 3.956 8.828 8.828c0 4.87-3.956 8.828-8.828 8.828z" />
<glyph unicode="&#xe91d;" d="M317.794 545.104c-14.604 0-26.482 11.88-26.482 26.482 0 14.604 11.88 26.482 26.482 26.482 14.604 0 26.482-11.88 26.482-26.482s-11.88-26.482-26.482-26.482zM317.794 580.414c-4.87 0-8.828-3.956-8.828-8.828 0-4.87 3.956-8.828 8.828-8.828 4.87 0 8.828 3.956 8.828 8.828-0.002 4.87-3.958 8.828-8.828 8.828z" />
<glyph unicode="&#xe91e;" d="M353.104 527.448c-14.604 0-26.482 11.88-26.482 26.482 0 14.604 11.88 26.482 26.482 26.482 14.604 0 26.482-11.88 26.482-26.482s-11.88-26.482-26.482-26.482zM353.104 562.758c-4.87 0-8.828-3.956-8.828-8.828 0-4.87 3.956-8.828 8.828-8.828 4.87 0 8.828 3.956 8.828 8.828s-3.958 8.828-8.828 8.828z" />
<glyph unicode="&#xe91f;" d="M247.172 527.448c-14.604 0-26.482 11.88-26.482 26.482 0 14.604 11.88 26.482 26.482 26.482 14.604 0 26.482-11.88 26.482-26.482 0.002-14.602-11.878-26.482-26.482-26.482zM247.172 562.758c-4.87 0-8.828-3.956-8.828-8.828 0-4.87 3.956-8.828 8.828-8.828s8.828 3.958 8.828 8.83c0 4.87-3.956 8.826-8.828 8.826z" />
<glyph unicode="&#xe920;" d="M353.104 377.38v-8.828c0-4.868-3.96-8.828-8.828-8.828s-8.828 3.96-8.828 8.828v8.828h17.656zM370.758 395.034h-52.966v-26.482c0-14.604 11.88-26.482 26.482-26.482 14.604 0 26.482 11.88 26.482 26.482v26.482h0.002z" />
<glyph unicode="&#xe921;" d="M344.276 430.344v0c-9.75 0-17.656 7.906-17.656 17.656v17.656c0 9.75 7.906 17.656 17.656 17.656v0c9.75 0 17.656-7.906 17.656-17.656v-17.656c0-9.75-7.906-17.656-17.656-17.656z" />
<glyph unicode="&#xe922;" d="M326.622 412.7c0-14.626-11.856-26.482-26.482-26.482s-26.482 11.856-26.482 26.482c0 14.626 11.856 26.482 26.482 26.482s26.482-11.856 26.482-26.482z" />
<glyph unicode="&#xe923;" d="M291.32 606.9h17.656v-52.966h-17.656v52.966z" />
<glyph unicode="&#xe924;" d="M247.172 518.62l-17.656 17.656 10.342 10.342c15.986 15.986 37.67 24.968 60.28 24.968v0c22.61 0 44.292-8.982 60.28-24.968l10.342-10.342-17.656-17.656h-105.932z" />
<glyph unicode="&#xe925;" d="M308.968 536.28c0-4.876-3.952-8.828-8.828-8.828s-8.828 3.952-8.828 8.828c0 4.876 3.952 8.828 8.828 8.828s8.828-3.952 8.828-8.828z" />
<glyph unicode="&#xe926;" d="M273.648 536.28c0-4.876-3.952-8.828-8.828-8.828s-8.828 3.952-8.828 8.828c0 4.876 3.952 8.828 8.828 8.828s8.828-3.952 8.828-8.828z" />
<glyph unicode="&#xe927;" d="M344.268 536.28c0-4.876-3.952-8.828-8.828-8.828s-8.828 3.952-8.828 8.828c0 4.876 3.952 8.828 8.828 8.828s8.828-3.952 8.828-8.828z" />
<glyph unicode="&#xe928;" d="M141.24 448h88.28v-17.656h-88.28v17.656z" />
<glyph unicode="&#xe929;" d="M141.242 377.38l52.964 17.654v17.656l-52.964-17.656z" />
<glyph unicode="&#xe92a;" d="M947.31 783.448h-870.62c-42.356 0-76.69-34.334-76.69-76.69v-517.518c0-42.354 34.334-76.69 76.69-76.69h870.62c42.354 0 76.69 34.334 76.69 76.69v517.518c0 42.356-34.334 76.69-76.69 76.69z" />
<glyph unicode="&#xe92b;" d="M1022.938 719.436c-6.044 36.318-37.594 64.014-75.628 64.014h-19.954l-327.080-214.294v214.292h-176.552v-214.294l-327.080 214.294h-19.954c-38.034 0-69.584-27.694-75.628-64.014l279.556-183.16h-280.618v-176.552h280.618l-279.556-183.156c6.044-36.318 37.594-64.014 75.628-64.014h19.954l327.080 214.294v-214.294h176.552v214.294l327.080-214.294h19.954c38.034 0 69.584 27.694 75.628 64.014l-279.556 183.16h280.618v176.552h-280.618l279.556 183.158z" />
<glyph unicode="&#xe92c;" d="M564.966 783.448h-105.932v-282.482h-459.034v-105.932h459.034v-282.482h105.932v282.482h459.034v105.932h-459.034z" />
<glyph unicode="&#xe92d;" d="M49.586 117.496l373.166 242.228h-64.856l-339.448-220.344c8.306-9.694 18.98-17.29 31.138-21.884z" />
<glyph unicode="&#xe92e;" d="M692.776 359.724h-64.856l361.432-234.61c10.114 6.642 18.554 15.614 24.574 26.15l-321.15 208.46z" />
<glyph unicode="&#xe92f;" d="M8.098 741.050l315.46-204.774h64.856l-357.464 232.040c-9.598-7.144-17.452-16.484-22.852-27.266z" />
<glyph unicode="&#xe930;" d="M665.132 536.276l340.070 220.75c-8.398 9.662-19.156 17.214-31.398 21.72l-373.528-242.47h64.856z" />
</font>
</defs>
</svg>
